<mxfile host="app.diagrams.net" modified="2022-10-28T04:54:43.248Z" agent="5.0 (Macintosh; Intel Mac OS X 10_15_7) AppleWebKit/537.36 (KHTML, like Gecko) Chrome/106.0.0.0 Safari/537.36" etag="E9HVUcLYTtjtx6_iezp-" version="20.5.1" type="github">
  <diagram id="jXsbLpp_0BiS_a4ieDlY" name="第 1 页">
    <mxGraphModel dx="1426" dy="737" grid="1" gridSize="10" guides="1" tooltips="1" connect="1" arrows="1" fold="1" page="1" pageScale="1" pageWidth="3300" pageHeight="4681" math="0" shadow="0">
      <root>
        <mxCell id="0" />
        <mxCell id="1" parent="0" />
        <mxCell id="xg1EPQKAXmZerOK36xIw-1" value="" style="rounded=0;whiteSpace=wrap;html=1;" vertex="1" parent="1">
          <mxGeometry x="610" y="180" width="220" height="280" as="geometry" />
        </mxCell>
        <mxCell id="xg1EPQKAXmZerOK36xIw-2" value="变量的声明周期" style="text;html=1;align=center;verticalAlign=middle;resizable=0;points=[];autosize=1;strokeColor=none;fillColor=none;" vertex="1" parent="1">
          <mxGeometry x="670" y="190" width="110" height="30" as="geometry" />
        </mxCell>
        <mxCell id="xg1EPQKAXmZerOK36xIw-3" value="声明阶段" style="rounded=1;whiteSpace=wrap;html=1;fillColor=#f8cecc;strokeColor=#b85450;" vertex="1" parent="1">
          <mxGeometry x="665" y="240" width="120" height="40" as="geometry" />
        </mxCell>
        <mxCell id="xg1EPQKAXmZerOK36xIw-5" value="初始化阶段" style="rounded=1;whiteSpace=wrap;html=1;fillColor=#dae8fc;strokeColor=#6c8ebf;" vertex="1" parent="1">
          <mxGeometry x="665" y="310" width="120" height="40" as="geometry" />
        </mxCell>
        <mxCell id="xg1EPQKAXmZerOK36xIw-7" value="赋值阶段" style="rounded=1;whiteSpace=wrap;html=1;fillColor=#d5e8d4;strokeColor=#82b366;" vertex="1" parent="1">
          <mxGeometry x="665" y="380" width="120" height="40" as="geometry" />
        </mxCell>
      </root>
    </mxGraphModel>
  </diagram>
</mxfile>
